HIERARCHY
ROOT Hips
{
    OFFSET 0.000000 0.000000 0.000000
    CHANNELS 6 Xposition Yposition Zposition Zrotation Xrotation Yrotation
    JOINT Spine
    {
        OFFSET -0.000000 0.081343 0.000000
        CHANNELS 3 Zrotation Xrotation Yrotation
        JOINT Spine1
        {
            OFFSET -0.000000 0.243280 0.000000
            CHANNELS 3 Zrotation Xrotation Yrotation
            JOINT Neck
            {
                OFFSET -0.000000 0.242281 0.022026
                CHANNELS 3 Zrotation Xrotation Yrotation
                JOINT Head
                {
                    OFFSET -0.000000 0.149025 -0.021289
                    CHANNELS 3 Zrotation Xrotation Yrotation
                    End Site
                    {
                        OFFSET -0.000000 0.198396 0.000000
                    }
                }
            }
            JOINT LeftShoulder
            {
                OFFSET 0.039707 0.224479 -0.002125
                CHANNELS 3 Zrotation Xrotation Yrotation
                JOINT LeftArm
                {
                    OFFSET 0.116942 0.000000 0.000000
                    CHANNELS 3 Zrotation Xrotation Yrotation
                    JOINT LeftForeArm
                    {
                        OFFSET 0.282002 0.000000 0.000000
                        CHANNELS 3 Zrotation Xrotation Yrotation
                        JOINT LeftHand
                        {
                            OFFSET 0.358743 0.000000 0.000000
                            CHANNELS 3 Zrotation Xrotation Yrotation
                            End Site
                            {
                                OFFSET 0.148797 0.000000 0.000000
                            }
                        }
                    }
                }
            }
            JOINT RightShoulder
            {
                OFFSET -0.039404 0.224479 -0.002125
                CHANNELS 3 Zrotation Xrotation Yrotation
                JOINT RightArm
                {
                    OFFSET -0.116942 0.000000 0.000000
                    CHANNELS 3 Zrotation Xrotation Yrotation
                    JOINT RightForeArm
                    {
                        OFFSET -0.282002 0.000000 0.000000
                        CHANNELS 3 Zrotation Xrotation Yrotation
                        JOINT RightHand
                        {
                            OFFSET -0.358743 0.000000 0.000000
                            CHANNELS 3 Zrotation Xrotation Yrotation
                            End Site
                            {
                                OFFSET -0.148797 0.000000 0.000000
                            }
                        }
                    }
                }
            }
        }
    }
    JOINT LeftUpLeg
    {
        OFFSET 0.099198 0.000000 0.000000
        CHANNELS 3 Zrotation Xrotation Yrotation
        JOINT LeftLeg
        {
            OFFSET -0.000000 -0.332973 0.000000
            CHANNELS 3 Zrotation Xrotation Yrotation
            JOINT LeftFoot
            {
                OFFSET -0.000000 -0.491254 0.000000
                CHANNELS 3 Zrotation Xrotation Yrotation
                JOINT LeftToeBase
                {
                    OFFSET -0.000000 -0.064479 0.148797
                    CHANNELS 3 Zrotation Xrotation Yrotation
                    End Site
                    {
                        OFFSET -0.000000 0.000000 0.039679
                    }
                }
            }
        }
    }
    JOINT RightUpLeg
    {
        OFFSET -0.099198 0.000000 0.000000
        CHANNELS 3 Zrotation Xrotation Yrotation
        JOINT RightLeg
        {
            OFFSET -0.000000 -0.332973 0.000000
            CHANNELS 3 Zrotation Xrotation Yrotation
            JOINT RightFoot
            {
                OFFSET -0.000000 -0.491254 0.000000
                CHANNELS 3 Zrotation Xrotation Yrotation
                JOINT RightToeBase
                {
                    OFFSET -0.000000 -0.064479 0.148797
                    CHANNELS 3 Zrotation Xrotation Yrotation
                    End Site
                    {
                        OFFSET -0.000000 0.000000 0.039679
                    }
                }
            }
        }
    }
}
MOTION
Frames:    7
Frame Time:    0.010000
-0.495869    0.858593    0.446945    -4.345872    -1.880660    -45.430843    -4.106756    3.300944    -6.185607    2.765015    8.017482    -2.296775    8.807423    14.901609    20.399843    -15.046041    -8.168605    18.022171    0.321540    17.944864    -10.525464    -11.778774    21.057999    -29.579102    43.973751    2.000566    -70.235596    42.360493    27.947371    -16.217684    3.864935    22.416758    12.069927    26.583338    27.714764    24.214424    -3.575125    4.192284    67.255608    10.999121    7.134927    5.990724    27.449209    -5.689352    14.540656    -19.775564    29.719286    11.007284    -3.565684    -12.682961    26.725565    0.000000    0.000000    0.000000    -16.233576    -15.511673    -10.891849    4.974898    36.009491    -9.108923    13.649913    -1.353713    0.504763    0.000000    0.000000    0.000000    
-0.495377    0.858730    0.446199    -4.348433    -1.761078    -45.280323    -4.125424    3.334796    -6.152592    2.726761    7.946201    -2.282034    8.889482    14.756114    20.559420    -15.022892    -8.117544    18.187960    0.376204    17.940382    -10.502684    -11.634450    21.114916    -29.814922    44.020512    2.036594    -70.227783    42.431408    27.991930    -16.243858    3.788871    22.467215    12.101262    26.825127    28.083742    24.088737    -4.026033    3.820856    67.196037    11.280103    7.083642    6.076027    27.536882    -6.009295    14.437387    -19.764324    29.861822    11.073960    -3.574023    -12.615747    26.711777    0.000000    0.000000    0.000000    -16.071039    -15.551775    -10.829501    4.951599    35.919689    -9.102592    13.634789    -1.366795    0.279816    0.000000    0.000000    0.000000    
-0.495415    0.858925    0.445702    -4.436866    -1.650611    -45.106983    -4.089328    3.323854    -6.127055    2.477186    7.984489    -2.256591    9.369151    14.721716    20.731384    -15.281807    -8.154597    18.300661    0.691782    17.983023    -10.473904    -11.631485    20.966709    -30.077854    43.983002    2.125272    -70.420746    42.379978    28.180666    -16.185694    3.972595    22.496387    12.094825    26.967943    28.407013    23.883503    -4.388037    3.531557    67.177139    11.491471    7.060272    6.225882    27.695518    -6.125522    13.742417    -20.080633    29.646681    11.582048    -3.514123    -12.597004    26.793015    0.000000    0.000000    0.000000    -15.811416    -15.415496    -10.684221    4.959507    35.697372    -9.243890    13.681776    -1.376006    0.058115    0.000000    0.000000    0.000000    
-0.494507    0.859041    0.444982    -4.403466    -1.537219    -44.971603    -4.113503    3.380809    -6.041086    2.448148    7.882236    -2.226905    9.344914    14.566798    20.930109    -15.229860    -8.189778    18.502417    0.642245    18.037163    -10.417167    -11.373371    21.075247    -30.452885    44.100246    2.089451    -70.269348    42.376518    28.174650    -16.126444    3.865756    22.572613    12.100090    27.359127    28.674397    23.697178    -4.927393    3.181750    67.104675    11.822392    7.090967    6.308863    27.714451    -6.477987    13.621776    -20.063330    29.778131    11.612413    -3.448439    -12.559786    26.863955    0.000000    0.000000    0.000000    -15.687409    -15.504910    -10.523577    4.978983    35.585472    -9.375756    13.742658    -1.346597    -0.156968    0.000000    0.000000    0.000000    
-0.493937    0.859179    0.444325    -4.428028    -1.387011    -44.795803    -4.127280    3.390806    -5.951605    2.389276    7.835868    -2.190092    9.613885    14.786697    21.131634    -15.766250    -8.672173    18.554356    0.747576    18.024223    -10.389701    -11.281443    21.061686    -30.828819    44.079330    2.180037    -70.343857    42.350151    28.313438    -16.045895    3.859632    22.541542    12.073568    27.874088    29.334883    23.421005    -5.752836    2.443570    66.907669    12.684109    6.947381    6.412435    27.837811    -6.737970    13.049876    -20.330715    29.657097    11.869672    -3.349236    -12.579118    27.127813    0.000000    0.000000    0.000000    -15.184175    -15.678056    -11.200568    3.961459    35.409813    -9.018979    13.375502    -0.717463    -0.890041    0.000000    0.000000    0.000000    
-0.493243    0.859286    0.443698    -4.448390    -1.229378    -44.584064    -4.136557    3.402670    -5.868510    2.425014    7.814640    -2.166951    9.587210    14.684270    21.391575    -15.801764    -8.837173    18.789209    0.636495    17.842402    -10.113097    -11.000440    21.287004    -31.480722    44.158875    2.334723    -70.255653    42.453022    28.408182    -16.154594    3.701444    22.365805    12.028985    28.618181    29.980745    23.057449    -6.733156    1.905821    66.668304    13.342126    7.067957    6.344152    28.231596    -7.309173    12.942636    -20.775965    30.095957    15.684829    -4.092311    -12.005851    23.560827    0.000000    0.000000    0.000000    -15.260768    -15.443318    -9.971989    5.175444    35.132900    -9.881279    13.829495    -1.384603    -0.366987    0.000000    0.000000    0.000000    
-0.492426    0.859394    0.443212    -4.469465    -1.096801    -44.329815    -4.106273    3.445457    -5.785172    2.404175    7.752049    -2.134446    9.066035    13.007862    21.684372    -13.615041    -6.922822    19.646156    0.529974    18.054283    -10.183407    -10.688937    21.251057    -31.984976    45.342796    2.882957    -69.607574    45.750191    28.116127    -18.361546    3.558356    22.379089    12.009989    29.458382    30.523829    22.737724    -6.490817    0.641276    66.392044    11.541792    5.469637    5.757389    28.287741    -7.647066    12.522715    -20.884190    30.088739    15.919814    -4.035472    -12.001842    23.622025    0.000000    0.000000    0.000000    -15.082367    -15.385359    -9.859574    5.208950    34.876030    -10.066705    13.845306    -1.357244    -0.931516    0.000000    0.000000    0.000000    
